<?xml version="1.0" encoding="UTF-8"?>
<svg width="177px" height="54px" viewBox="0 0 177 54" version="1.1" xmlns="http://www.w3.org/2000/svg" xmlns:xlink="http://www.w3.org/1999/xlink">
    <!-- Generator: Sketch 63.1 (92452) - https://sketch.com -->
    <title>apple-store</title>
    <desc>Created with Sketch.</desc>
    <g id="Page-1" stroke="none" stroke-width="1" fill="none" fill-rule="evenodd">
        <g id="apple-store" transform="translate(0.000000, 1.000000)" fill-rule="nonzero">
            <path d="M170.706666,51.853125 L170.706731,51.853125 C173.818788,51.853125 176.35467,49.351908 176.400063,46.245 L176.400063,6.16999074 C176.35467,3.05434206 173.818788,0.553125 170.706666,0.553125 L6.20155556,0.553125 C3.10804413,0.553125 0.599998671,3.06382596 0.599998671,6.16125 L0.599998671,46.2437368 C0.606515322,49.339153 3.11131293,51.846604 6.20155556,51.853125 L170.706666,51.853125 Z" id="Shape" stroke="#A6A6A6" stroke-width="1.2" fill="#000000"></path>
            <path d="M39.5004289,25.8847043 C39.5362542,23.2814895 40.9014426,20.8775708 43.1187888,19.5132446 C41.7121529,17.5007892 39.4374935,16.2711123 36.9833091,16.1964146 C34.3613091,15.9211046 31.9097391,17.7433946 30.5856293,17.7433946 C29.2615192,17.7433946 27.2163593,16.2226346 25.0400994,16.2750746 C22.1722748,16.3696824 19.5644429,17.9622515 18.1704596,20.4702744 C15.1944896,25.6093944 17.4100796,33.1738641 20.2549494,37.329734 C21.6839394,39.361784 23.3357994,41.642924 25.4989494,41.5642639 C27.6620993,41.4856039 28.4224793,40.253264 30.9920393,40.253264 C33.5615991,40.253264 34.2826491,41.5642639 36.5113491,41.5642639 C38.740049,41.5642639 40.234589,39.519104 41.6111389,37.460834 C42.6341922,36.0117291 43.4217696,34.4100267 43.9447188,32.7150141 C41.2197183,31.5448484 39.4663416,28.8501308 39.5004289,25.8847043 Z" id="Shape" fill="#FFFFFF"></path>
            <path d="M35.3052291,13.4695346 C36.5536508,11.9737947 37.1697453,10.0502631 37.0226391,8.10754479 C35.118261,8.30564885 33.3583406,9.21369293 32.0932791,10.6508847 C30.8449548,12.0710347 30.2128991,13.9294674 30.3365393,15.8162246 C32.264849,15.836639 34.0960586,14.9717669 35.3052291,13.4695346 Z" id="Shape" fill="#FFFFFF"></path>
            <path d="M70.3351482,41.2496239 L67.3460682,41.2496239 L65.7204284,36.1236141 L60.0569085,36.1236141 L58.4968185,41.2496239 L55.5995085,41.2496239 L61.2105884,23.8133244 L64.6847384,23.8133244 L70.3351482,41.2496239 Z M65.2353583,34.0391241 L63.7539284,29.4899542 C63.5966083,28.9830342 63.3212983,27.8774242 62.9279983,26.1731242 L62.9279983,26.1731242 C62.7531984,26.9160243 62.4778884,28.0128942 62.1020683,29.4637342 L60.5419784,34.0391241 L65.2353583,34.0391241 Z" id="Shape" fill="#FFFFFF"></path>
            <path d="M84.7692578,34.8126141 C84.872739,36.6643027 84.252177,38.4836775 83.0387379,39.8861839 C82.0522596,40.9668304 80.6472648,41.5689711 79.1843979,41.5380439 C77.7568232,41.6523676 76.3835639,40.965738 75.6184781,39.7550839 L75.6184781,39.7550839 L75.6184781,46.3756338 L72.760498,46.3756338 L72.760498,32.8198941 C72.760498,31.4739342 72.7255382,30.0930142 72.6556181,28.6771342 L75.1202981,28.6771342 L75.2776181,30.6698542 L75.2776181,30.6698542 C76.134572,29.3533719 77.5635863,28.5196543 79.1313435,28.421508 C80.6991009,28.3233618 82.2209367,28.9723474 83.2353878,30.1716742 C84.2929474,31.4812452 84.8381229,33.1307502 84.7692578,34.8126141 Z M81.9243879,34.9174941 C81.9647535,33.8473716 81.6765275,32.7905424 81.0984579,31.8890841 C80.5503438,31.0862484 79.6317327,30.6170653 78.6599979,30.6436342 C77.9740937,30.6417993 77.3097825,30.8833671 76.785268,31.3253542 C76.2251183,31.7818266 75.8367923,32.4151678 75.684028,33.1214241 C75.6068862,33.3993124 75.5628806,33.6853489 75.552928,33.9735741 L75.552928,36.0711741 C75.5278044,36.9231447 75.8277779,37.7527587 76.391968,38.3916439 C76.9440115,39.0176767 77.7471536,39.3639415 78.5813379,39.3355639 C79.5572708,39.3770542 80.4867995,38.9172342 81.0460179,38.1163339 C81.6695711,37.1697046 81.977082,36.0498142 81.9243879,34.9174941 L81.9243879,34.9174941 Z" id="Shape" fill="#FFFFFF"></path>
            <path d="M99.2426975,34.8126141 C99.3461786,36.6643027 98.7256167,38.4836775 97.5121775,39.8861839 C96.5267197,40.9682653 95.1210397,41.5706997 93.6578376,41.5380439 C92.2302627,41.6523676 90.8570036,40.965738 90.0919176,39.7550839 L90.0919176,39.7550839 L90.0919176,46.3756338 L87.2339377,46.3756338 L87.2339377,32.8198941 C87.2339377,31.4739342 87.1989777,30.0930142 87.1290578,28.6771342 L89.5937376,28.6771342 L89.7510576,30.6698542 L89.7510576,30.6698542 C90.6080117,29.3533719 92.0370258,28.5196543 93.6047832,28.421508 C95.1725404,28.3233618 96.6943764,28.9723474 97.7088275,30.1716742 C98.7653201,31.4818269 99.310359,33.1309189 99.2426975,34.8126141 L99.2426975,34.8126141 Z M96.3978274,34.9174941 C96.4381932,33.8473716 96.149967,32.7905424 95.5718974,31.8890841 C95.013714,31.0701162 94.0710821,30.5988001 93.0809976,30.6436342 C92.3950933,30.6417993 91.730782,30.8833671 91.2062676,31.3253542 C90.6461178,31.7818266 90.2577918,32.4151678 90.1050276,33.1214241 C90.0282425,33.3993889 89.9842432,33.6853831 89.9739276,33.9735741 L89.9739276,36.0711741 C89.9501209,36.9229333 90.2499251,37.7520789 90.8129676,38.3916439 C91.3925889,39.0204139 92.2283649,39.3489271 93.0809976,39.2831239 C94.0523549,39.3200752 94.9758963,38.8607739 95.5325674,38.0638939 C96.1408734,37.1304603 96.4433026,36.0307176 96.3978274,34.9174941 L96.3978274,34.9174941 Z" id="Shape" fill="#FFFFFF"></path>
            <path d="M115.367997,36.3595941 C115.412693,37.7351167 114.846305,39.0598885 113.821017,39.9779539 C112.487099,41.0657329 110.793434,41.6131327 109.075197,41.5118239 C107.494777,41.5862862 105.925863,41.2088373 104.552247,40.4236939 L105.194637,38.0901139 C106.41084,38.8296964 107.809138,39.2155905 109.232517,39.2044639 C110.111152,39.2599381 110.981932,39.0098205 111.697197,38.4965239 C112.273819,38.0371908 112.599482,37.3323966 112.575567,36.5955741 C112.591197,35.9272821 112.330306,35.2821703 111.854517,34.8126141 C111.148711,34.2150163 110.327659,33.7687921 109.442277,33.5016141 C106.400757,32.3304541 104.879997,30.6480042 104.879997,28.4542642 C104.833141,27.066238 105.439758,25.7365348 106.518747,24.8621244 C107.736599,23.9200503 109.255978,23.4539829 110.792607,23.5511244 C112.150886,23.5068898 113.499862,23.790175 114.725607,24.3770544 L114.056997,26.6581942 C113.028422,26.1126324 111.878061,25.8374479 110.713947,25.8584842 C109.882114,25.8051445 109.060036,26.0620438 108.406587,26.5795342 C107.957937,26.9784621 107.704439,27.5524204 107.711757,28.1527342 C107.698227,28.8144043 107.993917,29.4445636 108.511467,29.8570342 C109.284444,30.4260085 110.14293,30.8685273 111.054807,31.1680342 C112.309608,31.6103032 113.444895,32.337246 114.371637,33.2918541 C115.076205,34.1535807 115.431763,35.2483233 115.367997,36.3595941 L115.367997,36.3595941 Z" id="Shape" fill="#FFFFFF"></path>
            <path d="M124.662987,30.7747342 L121.582137,30.7747342 L121.582137,36.8839941 C121.582137,38.439714 122.124017,39.2175739 123.207777,39.2175739 C123.626771,39.2260198 124.045174,39.1819773 124.453227,39.0864739 L124.544997,41.1971839 C123.84354,41.4284434 123.10697,41.5349353 122.368737,41.5118239 C121.389168,41.5749631 120.431058,41.2060906 119.746737,40.5023539 C119.03131,39.5226115 118.700122,38.314473 118.815927,37.1068641 L118.815927,30.7747342 L116.980527,30.7747342 L116.980527,28.6771342 L118.815927,28.6771342 L118.815927,26.3697743 L121.555917,25.5438444 L121.555917,28.6771342 L124.636767,28.6771342 L124.662987,30.7747342 Z" id="Shape" fill="#FFFFFF"></path>
            <path d="M138.559586,34.8650541 C138.627502,36.6027212 138.037638,38.3020914 136.907726,39.623984 C135.727824,40.9124627 134.038488,41.613153 132.293007,41.538044 C130.620542,41.614322 129.001041,40.9415321 127.874937,39.702644 C126.761613,38.4236484 126.175836,36.7694166 126.236187,35.0748141 C126.164403,33.321755 126.76998,31.6083009 127.927377,30.2896643 C129.10172,29.0303511 130.769531,28.3498074 132.489657,28.4280443 C134.172754,28.3563752 135.802423,29.027415 136.947056,30.2634443 C138.04924,31.5369882 138.625731,33.1820958 138.559586,34.8650541 Z M135.662276,34.9568241 C135.694201,33.9105524 135.435538,32.875902 134.915006,31.9677441 C134.435655,31.029254 133.464706,30.4446506 132.410997,30.4600943 C131.317737,30.4081775 130.294095,30.9967719 129.788997,31.9677441 C129.264172,32.8932662 129.005549,33.9459096 129.041727,35.0092641 C129.014654,36.0466958 129.273154,37.0716222 129.788997,37.972124 C130.28505,38.9054476 131.255713,39.4887933 132.312672,39.4887933 C133.36963,39.4887933 134.340293,38.9054476 134.836346,37.972124 C135.389115,37.0644257 135.675332,36.0195092 135.662276,34.9568241 L135.662276,34.9568241 Z" id="Shape" fill="#FFFFFF"></path>
            <path d="M147.644816,31.1287043 C147.355032,31.0757957 147.06102,31.0494663 146.766446,31.0500443 C145.864941,31.0040655 145.003174,31.4250438 144.485306,32.1643941 C143.999027,32.8967657 143.755903,33.7637535 143.790476,34.6421841 L143.790476,41.197184 L140.998046,41.197184 L140.998046,32.5839141 C140.998046,31.1330742 140.963086,29.8220742 140.893166,28.6509143 L143.331626,28.6509143 L143.436506,31.0631543 L143.515166,31.0631543 C143.780816,30.2775429 144.267972,29.5855085 144.917936,29.0704343 C145.50152,28.63628 146.209511,28.4018151 146.936876,28.4018243 C147.168129,28.3836375 147.400453,28.3836375 147.631706,28.4018243 L147.644816,31.1287043 Z" id="Shape" fill="#FFFFFF"></path>
            <path d="M160.151756,34.3668741 C160.160835,34.806285 160.125698,35.2454952 160.046876,35.6778741 L151.656476,35.6778741 C151.621872,36.7598639 152.068332,37.8016018 152.875706,38.5227439 C153.655308,39.1324545 154.626912,39.4439254 155.615696,39.4011139 C156.774431,39.4181547 157.926108,39.2180562 159.011186,38.8111639 L159.443816,40.7514439 C158.105034,41.2974968 156.667809,41.5608393 155.222396,41.5249339 C153.515811,41.6214142 151.846857,40.9985281 150.620786,39.8075239 C149.470821,38.5539459 148.871139,36.8918353 148.955816,35.1928041 C148.896863,33.4799595 149.449945,31.802122 150.515906,30.4600942 C151.579064,29.1242019 153.214857,28.374463 154.920866,28.4411542 C156.551295,28.3499053 158.1114,29.1150522 159.037406,30.4600942 C159.798038,31.6184871 160.186823,32.98152 160.151756,34.3668741 L160.151756,34.3668741 Z M157.529756,33.6458241 C157.568081,32.8916676 157.38096,32.1431809 156.992246,31.4957841 C156.522792,30.7240872 155.665212,30.2751186 154.763546,30.3289942 C153.87539,30.3070498 153.036537,30.7363455 152.534846,31.4695641 C152.057855,32.1014988 151.771302,32.8565392 151.708916,33.6458241 L157.529756,33.6458241 Z" id="Shape" fill="#FFFFFF"></path>
            <path d="M64.3045484,13.0631247 C64.407388,14.3793661 63.8998767,15.669895 62.9279984,16.5634945 C61.8786707,17.3419119 60.5872248,17.7228418 59.2834185,17.6385145 C58.613328,17.643018 57.9435552,17.6079972 57.2775885,17.5336345 L57.2775885,9.13012476 C58.0580209,9.00599173 58.847148,8.9446152 59.6373885,8.94658476 C60.850246,8.85903615 62.0544707,9.2077498 63.0328784,9.92983474 C63.9070395,10.7294328 64.3741983,11.8804735 64.3045484,13.0631247 Z M62.8493384,13.0631247 C62.9057906,12.2175022 62.6172801,11.3850784 62.0496284,10.7557647 C61.4170728,10.1847311 60.5792154,9.89597802 59.7291585,9.95605474 C59.3600073,9.9518889 58.9912884,9.98261547 58.6279185,10.0478247 L58.6279185,16.4586145 C58.9378761,16.4783032 59.2487708,16.4783032 59.5587285,16.4586145 C60.4430948,16.5448263 61.324213,16.2653317 61.9971884,15.6851245 C62.626607,14.9637282 62.934384,14.016722 62.8493384,13.0631247 L62.8493384,13.0631247 Z" id="Shape" fill="#FFFFFF"></path>
            <path d="M71.987008,14.3741246 C72.0200773,15.2266588 71.7297438,16.060197 71.1741882,16.7077045 C70.5945189,17.3416258 69.7644205,17.6871003 68.9061582,17.6516245 C68.0866569,17.6857044 67.2942892,17.3543507 66.7430082,16.7470345 C66.1919569,16.1176173 65.9013173,15.3019509 65.9301882,14.4658946 C65.8947087,13.6067422 66.1903503,12.7667449 66.7561182,12.1192047 C67.3324879,11.4991142 68.1521891,11.163564 68.9979282,11.2015047 C69.8248386,11.1686343 70.6247482,11.4991359 71.1872982,12.1060947 C71.7327799,12.7327878 72.0187764,13.5438925 71.987008,14.3741246 L71.987008,14.3741246 Z M70.5580182,14.3741246 C70.5456909,13.9135326 70.4195832,13.4631477 70.1909382,13.0631247 C69.9623439,12.5954466 69.4787035,12.3073205 68.9585982,12.3289647 C68.4147935,12.2925716 67.900725,12.58045 67.6475982,13.0631247 C67.3902553,13.5181192 67.2632478,14.0352212 67.2805182,14.5576646 C67.2653767,15.0715644 67.3924029,15.579669 67.6475982,16.0259845 C67.8910029,16.4843038 68.3675497,16.770801 68.8864932,16.770801 C69.4054366,16.770801 69.8819835,16.4843038 70.1253882,16.0259845 C70.4212187,15.560409 70.5718192,15.0173343 70.5580182,14.4658946 L70.5580182,14.3741246 Z" id="Shape" fill="#FFFFFF"></path>
            <path d="M82.2914679,11.3850447 L80.3642979,17.5598545 L79.0532979,17.5598545 L78.2535879,14.9378546 C78.0532464,14.282658 77.8869638,13.6175277 77.7554079,12.9451347 L77.7554079,12.9451347 C77.636493,13.6202799 77.4700184,14.2861782 77.2572281,14.9378546 L76.4050781,17.5598545 L75.0940781,17.5598545 L73.337338,11.3850447 L74.726998,11.3850447 L75.4480481,14.3741246 C75.614108,15.0733246 75.753948,15.7331946 75.8675681,16.3537345 L75.8675681,16.3537345 C75.972448,15.8380746 76.1428781,15.1825746 76.3788581,14.3872346 L77.2572281,11.4374847 L78.3715779,11.4374847 L79.2106179,14.3216846 C79.4116379,15.0208846 79.5776979,15.6982345 79.7087979,16.3537345 L79.7087979,16.3537345 C79.8121709,15.6693648 79.9522124,14.9910385 80.1283179,14.3216846 L80.8755879,11.4374847 L82.2914679,11.3850447 Z" id="Shape" fill="#FFFFFF"></path>
            <path d="M89.4101976,17.5598546 L88.0991978,17.5598546 L88.0991978,14.0201546 C88.0991978,12.9276547 87.6621977,12.3814047 86.7881978,12.3814047 C86.407074,12.3780883 86.0433744,12.5407961 85.7918377,12.8271447 C85.5392958,13.1225859 85.4040069,13.5004615 85.4116478,13.8890546 L85.4116478,17.5598546 L84.1006478,17.5598546 L84.1006478,13.1548947 L84.1006478,11.3850447 L85.2149978,11.3850447 L85.2149978,12.3551847 L85.2149978,12.3551847 C85.3809548,12.0480264 85.625192,11.7902205 85.9229378,11.6079147 C86.3163104,11.3664341 86.7727628,11.2477564 87.2339378,11.2670547 C87.7715019,11.2498503 88.2926543,11.4535735 88.6760378,11.8307847 C89.1854036,12.3848432 89.4418025,13.1255509 89.3839776,13.8759446 L89.4101976,17.5598546 Z" id="Shape" fill="#FFFFFF"></path>
            <polygon id="Shape" fill="#FFFFFF" points="93.1989876 17.5598545 91.7699976 17.5598545 91.7699976 8.55328477 93.0809976 8.55328477"></polygon>
            <path d="M101.287857,14.3741246 C101.320927,15.2266588 101.030593,16.060197 100.475037,16.7077046 C99.8953681,17.3416258 99.0652698,17.6871003 98.2070074,17.6516246 C97.3875061,17.6857044 96.5951385,17.3543507 96.0438575,16.7470346 C95.4928062,16.1176173 95.2021665,15.3019509 95.2310374,14.4658946 C95.1955579,13.6067422 95.4911995,12.7667449 96.0569675,12.1192047 C96.6488847,11.511191 97.4785136,11.1946851 98.3249974,11.2539447 C99.1519079,11.2210743 99.9518175,11.5515759 100.514367,12.1585347 C101.037921,12.7756531 101.313578,13.5652477 101.287857,14.3741246 L101.287857,14.3741246 Z M99.8588675,14.3741246 C99.8465401,13.9135326 99.7204324,13.4631477 99.4917875,13.0631247 C99.2631932,12.5954466 98.7795528,12.3073205 98.2594474,12.3289647 C97.7346837,12.3019789 97.2445051,12.5909262 97.0139975,13.0631247 C96.7566546,13.5181192 96.6296471,14.0352212 96.6469175,14.5576646 C96.643624,15.0494201 96.7702533,15.5333244 97.0139975,15.9604346 C97.2696162,16.4406776 97.781964,16.7275923 98.3249974,16.6945946 C98.8481298,16.7138841 99.3325932,16.4201137 99.5573375,15.9473246 C99.7934553,15.4910928 99.8978649,14.9781234 99.8588675,14.4658946 L99.8588675,14.3741246 Z" id="Shape" fill="#FFFFFF"></path>
            <path d="M107.934627,17.5598545 L106.702287,17.5598545 L106.597407,16.8519145 L106.597407,16.8519145 C106.175714,17.4217575 105.496124,17.7418542 104.788227,17.7040645 C104.25745,17.7267925 103.742249,17.5216662 103.372347,17.1403345 C103.03627,16.7892478 102.860657,16.3146193 102.887277,15.8293345 C102.860781,15.1230472 103.223031,14.4589219 103.831197,14.0988146 C104.633684,13.6631035 105.541425,13.4588618 106.453197,13.5088646 L106.453197,13.4564246 C106.453197,12.6436047 106.016197,12.2371947 105.142197,12.2371947 C104.584356,12.2340611 104.037684,12.3935071 103.568997,12.6960447 L103.293687,11.7521247 C103.936431,11.375421 104.672947,11.1890186 105.417507,11.2146147 C107.034407,11.2146147 107.842857,12.0667647 107.842857,13.7710646 L107.842857,16.0522045 C107.834059,16.5563793 107.864743,17.0604691 107.934627,17.5598545 L107.934627,17.5598545 Z M106.505637,15.4360345 L106.505637,14.4790046 C104.993617,14.4790046 104.237607,14.9160046 104.237607,15.7900045 C104.217279,16.0568728 104.312808,16.3195782 104.499807,16.5110545 C104.684244,16.6724169 104.923554,16.7568792 105.168417,16.7470345 C105.472264,16.7461306 105.767274,16.644721 106.007457,16.4586145 C106.253827,16.2841633 106.422994,16.0210143 106.479417,15.7244545 C106.500666,15.6298644 106.509481,15.5329059 106.505637,15.4360345 L106.505637,15.4360345 Z" id="Shape" fill="#FFFFFF"></path>
            <path d="M115.748187,17.5598545 L114.528957,17.5598545 L114.528957,16.5634946 L114.528957,16.5634946 C114.156189,17.303528 113.376006,17.7478707 112.549347,17.6909546 C111.825788,17.7044749 111.137349,17.3796476 110.687727,16.8125845 C110.17604,16.1655585 109.915319,15.3554616 109.953567,14.5314446 C109.912822,13.6521607 110.197531,12.7886978 110.753277,12.1060947 C111.230305,11.5466232 111.932197,11.2293295 112.667337,11.2408347 C113.360204,11.1696827 114.034247,11.4940338 114.410967,12.0798747 L114.410967,12.0798747 L114.410967,8.55328477 L115.721967,8.55328477 L115.721967,15.9079946 C115.704487,16.5023145 115.713227,17.0529345 115.748187,17.5598545 Z M114.319197,14.9378546 L114.319197,13.9021646 C114.335108,13.7583935 114.335108,13.6133058 114.319197,13.4695346 C114.247125,13.1437805 114.072521,12.8497109 113.821017,12.6304947 C113.570605,12.4026407 113.241755,12.2804961 112.903317,12.2896347 C112.422743,12.2769451 111.96856,12.5089732 111.697197,12.9058047 C111.387408,13.3656273 111.231353,13.9118167 111.251457,14.4658946 C111.224761,14.9964728 111.372068,15.5212542 111.670977,15.9604346 C111.94234,16.357266 112.396523,16.5892941 112.877097,16.5766045 C113.301182,16.5923363 113.706649,16.4018154 113.965227,16.0653146 C114.210927,15.7472246 114.336299,15.3525328 114.319197,14.9509646 L114.319197,14.9378546 Z" id="Shape" fill="#FFFFFF"></path>
            <path d="M127.494747,14.3741246 C127.527816,15.2266588 127.237482,16.060197 126.681927,16.7077045 C126.103324,17.3431432 125.272484,17.6889265 124.413897,17.6516245 C123.594396,17.6857044 122.802028,17.3543507 122.250747,16.7470345 C121.699696,16.1176173 121.409056,15.3019509 121.437927,14.4658946 C121.402447,13.6067422 121.698089,12.7667449 122.263857,12.1192047 C122.858809,11.5075506 123.69406,11.190731 124.544997,11.2539447 C125.372224,11.2192861 126.172854,11.5500854 126.734367,12.1585347 C127.253198,12.7775626 127.524114,13.5669575 127.494747,14.3741246 L127.494747,14.3741246 Z M126.065757,14.3741246 C126.05343,13.9135326 125.927322,13.4631477 125.698677,13.0631247 C125.470082,12.5954466 124.986442,12.3073205 124.466337,12.3289647 C123.950434,12.3234059 123.474736,12.6068004 123.233997,13.0631247 C122.976654,13.5181192 122.849646,14.0352212 122.866917,14.5576646 C122.863623,15.04942 122.990253,15.5333244 123.233997,15.9604345 C123.477401,16.4187539 123.953948,16.705251 124.472892,16.705251 C124.991835,16.705251 125.468382,16.4187539 125.711787,15.9604345 C125.967154,15.505134 126.089783,14.9873674 126.065757,14.4658946 L126.065757,14.3741246 Z" id="Shape" fill="#FFFFFF"></path>
            <path d="M134.875676,17.5598546 L133.564677,17.5598546 L133.564677,14.0201546 C133.564677,12.9276547 133.127676,12.3814047 132.253677,12.3814047 C131.870277,12.3667792 131.501939,12.5315619 131.257317,12.8271447 C131.004775,13.1225859 130.869486,13.5004615 130.877127,13.8890546 L130.877127,17.5598546 L129.566127,17.5598546 L129.566127,13.1548947 L129.566127,11.3850447 L130.772247,11.3850447 L130.772247,12.3551847 L130.772247,12.3551847 C130.939206,12.0487538 131.183221,11.7911821 131.480187,11.6079147 C131.873559,11.3664341 132.330012,11.2477564 132.791187,11.2670547 C133.328751,11.2498503 133.849903,11.4535735 134.233287,11.8307847 C134.742652,12.3848432 134.999051,13.1255509 134.941226,13.8759446 L134.875676,17.5598546 Z" id="Shape" fill="#FFFFFF"></path>
            <path d="M144.131336,12.4076247 L142.623686,12.4076247 L142.623686,15.4098146 C142.623686,16.1701946 142.885886,16.5503846 143.423396,16.5503846 C143.62796,16.5764388 143.835003,16.5764388 144.039566,16.5503846 L144.039566,17.5991846 C143.697467,17.7131009 143.338089,17.7663422 142.977656,17.7565046 C142.488085,17.7952752 142.006932,17.6124374 141.666656,17.2583246 C141.314596,16.7784354 141.151283,16.1858456 141.207806,15.5933546 L141.207806,12.4076247 L140.303216,12.4076247 L140.303216,11.3850447 L141.207806,11.3850447 L141.207806,10.2575847 L142.518806,9.85117475 L142.518806,11.3850447 L144.026456,11.3850447 L144.131336,12.4076247 Z" id="Shape" fill="#FFFFFF"></path>
            <path d="M151.394275,17.5598545 L150.083275,17.5598545 L150.083275,14.0463746 C150.083275,12.9363947 149.668126,12.3814047 148.837826,12.3814047 C148.228383,12.3605289 147.685017,12.76262 147.526826,13.3515447 C147.502613,13.516722 147.502613,13.6845473 147.526826,13.8497246 L147.526826,17.5598545 L146.215826,17.5598545 L146.215826,8.55328477 L147.526826,8.55328477 L147.526826,12.2765247 L147.526826,12.2765247 C147.915463,11.6242835 148.629796,11.2369339 149.388446,11.2670547 C149.893353,11.2405905 150.388221,11.4149728 150.764995,11.7521247 C151.265667,12.3210911 151.516114,13.06771 151.459825,13.8235046 L151.394275,17.5598545 Z" id="Shape" fill="#FFFFFF"></path>
            <path d="M158.906306,14.1774746 C158.926409,14.386753 158.926409,14.5974763 158.906306,14.8067546 L154.697995,14.8067546 C154.680357,15.3407688 154.901391,15.8549121 155.301055,16.2095245 C155.674702,16.5013274 156.138121,16.6542553 156.612055,16.6421546 C157.180164,16.6505278 157.744837,16.5527104 158.277026,16.3537345 L158.486786,17.3107645 C157.829139,17.5762609 157.124471,17.7055986 156.415406,17.6909546 C155.57942,17.7394805 154.761414,17.4351061 154.160485,16.8519145 C153.59682,16.2352187 153.304026,15.4182274 153.347666,14.5838846 C153.31471,13.7402343 153.584393,12.9125882 154.108046,12.2503047 C154.627968,11.590985 155.432205,11.2205486 156.271196,11.2539447 C157.072072,11.2103242 157.837584,11.5881093 158.290136,12.2503047 C158.691225,12.8128437 158.90664,13.4865894 158.906306,14.1774746 L158.906306,14.1774746 Z M157.595305,13.8235046 C157.61703,13.4511892 157.525629,13.0810096 157.333106,12.7615947 C157.105353,12.3824889 156.686568,12.160482 156.244976,12.1847547 C155.811355,12.181142 155.404004,12.3921804 155.156846,12.7484847 C154.924976,13.0576161 154.784202,13.4254452 154.750436,13.8103946 L157.595305,13.8235046 Z" id="Shape" fill="#FFFFFF"></path>
        </g>
    </g>
</svg>