<?xml version="1.0" encoding="UTF-8"?>
<svg width="177px" height="54px" viewBox="0 0 177 54" version="1.1" xmlns="http://www.w3.org/2000/svg" xmlns:xlink="http://www.w3.org/1999/xlink">
    <!-- Generator: Sketch 63.1 (92452) - https://sketch.com -->
    <title>google-play</title>
    <desc>Created with Sketch.</desc>
    <defs>
        <linearGradient x1="61.023168%" y1="4.8388%" x2="26.115776%" y2="71.9684%" id="linearGradient-1">
            <stop stop-color="#00A0FF" offset="0%"></stop>
            <stop stop-color="#00A1FF" offset="0.657445%"></stop>
            <stop stop-color="#00BEFF" offset="26.01%"></stop>
            <stop stop-color="#00D2FF" offset="51.22%"></stop>
            <stop stop-color="#00DFFF" offset="76.04%"></stop>
            <stop stop-color="#00E3FF" offset="100%"></stop>
        </linearGradient>
        <linearGradient x1="107.727094%" y1="49.4282353%" x2="-130.66601%" y2="49.4282353%" id="linearGradient-2">
            <stop stop-color="#FFE000" offset="0%"></stop>
            <stop stop-color="#FFBD00" offset="40.87%"></stop>
            <stop stop-color="#FFA500" offset="77.54%"></stop>
            <stop stop-color="#FF9C00" offset="100%"></stop>
        </linearGradient>
        <linearGradient x1="86.3886228%" y1="30.8297553%" x2="-49.8886228%" y2="136.004321%" id="linearGradient-3">
            <stop stop-color="#FF3A44" offset="0%"></stop>
            <stop stop-color="#C31162" offset="100%"></stop>
        </linearGradient>
        <linearGradient x1="-18.5796407%" y1="-11.6823797%" x2="42.2742515%" y2="35.0643382%" id="linearGradient-4">
            <stop stop-color="#32A071" offset="0%"></stop>
            <stop stop-color="#2DA771" offset="6.85%"></stop>
            <stop stop-color="#15CF74" offset="47.62%"></stop>
            <stop stop-color="#06E775" offset="80.09%"></stop>
            <stop stop-color="#00F076" offset="100%"></stop>
        </linearGradient>
    </defs>
    <g id="Page-1" stroke="none" stroke-width="1" fill="none" fill-rule="evenodd">
        <g id="google-play" transform="translate(0.000000, 1.000000)" fill-rule="nonzero">
            <path d="M170.706666,51.853125 L170.706731,51.853125 C173.818788,51.853125 176.35467,49.351908 176.400063,46.245 L176.400063,6.16999074 C176.35467,3.05434206 173.818788,0.553125 170.706666,0.553125 L6.20155556,0.553125 C3.10804413,0.553125 0.599998671,3.06382596 0.599998671,6.16125 L0.599998671,46.2437368 C0.606515322,49.339153 3.11131293,51.846604 6.20155556,51.853125 L170.706666,51.853125 Z" id="Shape" stroke="#A6A6A6" stroke-width="1.2" fill="#000000"></path>
            <g id="copy" transform="translate(53.750999, 8.819125)" fill="#FFFFFF" stroke="#FFFFFF" stroke-width="0.5">
                <path d="M8.39039978,4.50619985 C8.39039978,5.55499983 8.12819979,6.4726998 7.47269981,7.12819979 C6.68609982,7.91479976 5.76839985,8.30809976 4.58849988,8.30809976 C3.40859991,8.30809976 2.49089994,7.91479976 1.70429996,7.12819979 C0.917699976,6.3415998 0.524399987,5.42389983 0.524399987,4.24399986 C0.524399987,3.06409989 0.917699976,2.14639992 1.70429996,1.35979994 C2.49089994,0.573199955 3.40859991,0.179899968 4.58849988,0.179899968 C5.11289987,0.179899968 5.63729985,0.310999965 6.16169984,0.573199955 C6.68609982,0.835399955 7.07939982,1.09759994 7.34159981,1.49089994 L6.68609982,2.14639992 C6.16169984,1.49089994 5.50619985,1.22869994 4.58849988,1.22869994 C3.8018999,1.22869994 3.01529993,1.49089994 2.49089994,2.14639992 C1.83539996,2.67079991 1.57319996,3.45739988 1.57319996,4.37509986 C1.57319996,5.29279983 1.83539996,6.07939982 2.49089994,6.6037998 C3.14639993,7.12819979 3.8018999,7.52149977 4.58849988,7.52149977 C5.50619985,7.52149977 6.16169984,7.25929979 6.81719982,6.6037998 C7.21049981,6.2104998 7.47269981,5.68609982 7.47269981,5.03059983 L4.58849988,5.03059983 L4.58849988,3.98179986 L8.39039978,3.98179986 C8.39039978,4.11289986 8.39039978,4.37509986 8.39039978,4.50619985 Z" id="Shape"></path>
                <polygon id="Shape" points="14.4209996 1.22869994 10.8812997 1.22869994 10.8812997 3.71959988 14.1587996 3.71959988 14.1587996 4.63729985 10.8812997 4.63729985 10.8812997 7.12819979 14.4209996 7.12819979 14.4209996 8.17699976 9.83249974 8.17699976 9.83249974 0.310999965 14.4209996 0.310999965"></polygon>
                <polygon id="Shape" points="18.7472996 8.17699976 17.6984996 8.17699976 17.6984996 1.22869994 15.4697996 1.22869994 15.4697996 0.310999965 20.9759994 0.310999965 20.9759994 1.22869994 18.7472996 1.22869994"></polygon>
                <polygon id="Shape" points="24.7778994 8.17699976 24.7778994 0.310999965 25.8266993 0.310999965 25.8266993 8.17699976"></polygon>
                <polygon id="Shape" points="30.2840993 8.17699976 29.2352993 8.17699976 29.2352993 1.22869994 27.0065993 1.22869994 27.0065993 0.310999965 32.3816991 0.310999965 32.3816991 1.22869994 30.1529993 1.22869994 30.1529993 8.17699976"></polygon>
                <path d="M42.7385989,7.12819979 C41.9519989,7.91479976 41.0342989,8.30809976 39.8543989,8.30809976 C38.6744989,8.30809976 37.7567989,7.91479976 36.9701991,7.12819979 C36.1835991,6.3415998 35.7902991,5.42389983 35.7902991,4.24399986 C35.7902991,3.06409989 36.1835991,2.14639992 36.9701991,1.35979994 C37.7567989,0.573199955 38.6744989,0.179899968 39.8543989,0.179899968 C41.0342989,0.179899968 41.9519989,0.573199955 42.7385989,1.35979994 C43.5251988,2.14639992 43.9184988,3.06409989 43.9184988,4.24399986 C43.9184988,5.42389983 43.5251988,6.3415998 42.7385989,7.12819979 Z M37.7567989,6.4726998 C38.2811989,6.99709979 39.0677989,7.39039977 39.8543989,7.39039977 C40.6409989,7.39039977 41.4275989,7.12819979 41.9519989,6.4726998 C42.4763989,5.94829982 42.8696989,5.16169983 42.8696989,4.24399986 C42.8696989,3.32629988 42.6074989,2.53969991 41.9519989,2.01529992 C41.4275989,1.49089994 40.6409989,1.09759994 39.8543989,1.09759994 C39.0677989,1.09759994 38.2811989,1.35979994 37.7567989,2.01529992 C37.2323989,2.53969991 36.8390991,3.32629988 36.8390991,4.24399986 C36.8390991,5.16169983 37.1012991,5.94829982 37.7567989,6.4726998 Z" id="Shape"></path>
                <polygon id="Shape" points="45.3605988 8.17699976 45.3605988 0.310999965 46.5404988 0.310999965 50.3423987 6.4726998 50.3423987 6.4726998 50.3423987 4.89949985 50.3423987 0.310999965 51.3911987 0.310999965 51.3911987 8.17699976 50.3423987 8.17699976 46.2782988 1.75309992 46.2782988 1.75309992 46.2782988 3.32629988 46.2782988 8.17699976"></polygon>
            </g>
            <path d="M89.2790976,28.5329243 C86.1326978,28.5329243 83.6417977,30.8927243 83.6417977,34.1702241 C83.6417977,37.316624 86.1326978,39.807524 89.2790976,39.807524 C92.4254976,39.807524 94.9163975,37.447724 94.9163975,34.1702241 C94.9163975,30.7616242 92.4254976,28.5329243 89.2790976,28.5329243 Z M89.2790976,37.4477239 C87.5747978,37.4477239 86.1326978,36.0056241 86.1326978,34.0391241 C86.1326978,32.0726241 87.5747978,30.6305243 89.2790976,30.6305243 C90.9833976,30.6305243 92.4254976,31.9415241 92.4254976,34.0391241 C92.4254976,36.0056241 90.9833976,37.4477239 89.2790976,37.4477239 Z M77.086798,28.5329243 C73.940398,28.5329243 71.4494982,30.8927243 71.4494982,34.1702241 C71.4494982,37.316624 73.940398,39.807524 77.086798,39.807524 C80.2331979,39.807524 82.7240979,37.447724 82.7240979,34.1702241 C82.7240979,30.7616242 80.2331979,28.5329243 77.086798,28.5329243 Z M77.086798,37.4477239 C75.382498,37.4477239 73.940398,36.0056241 73.940398,34.0391241 C73.940398,32.0726241 75.382498,30.6305243 77.086798,30.6305243 C78.7910979,30.6305243 80.2331979,31.9415241 80.2331979,34.0391241 C80.2331979,36.0056241 78.7910979,37.4477239 77.086798,37.4477239 Z M62.5346983,30.2372243 L62.5346983,32.5970241 L68.1719982,32.5970241 C68.0408982,33.9080241 67.5164982,34.9568241 66.8609982,35.6123241 C66.0743982,36.3989241 64.7633983,37.316624 62.5346983,37.316624 C58.9949985,37.316624 56.3729985,34.5635241 56.3729985,31.0238242 C56.3729985,27.4841243 59.1260985,24.7310244 62.5346983,24.7310244 C64.3700983,24.7310244 65.8121984,25.5176244 66.8609982,26.4353242 L68.5652982,24.7310244 C67.1231982,23.4200244 65.2877984,22.3712244 62.6657984,22.3712244 C57.9461985,22.3712244 53.8820987,26.3042243 53.8820987,31.0238242 C53.8820987,35.7434241 57.9461985,39.676424 62.6657984,39.676424 C65.2877984,39.676424 67.1231982,38.889824 68.6963982,37.1855239 C70.2695982,35.6123241 70.7939982,33.3836241 70.7939982,31.6793241 C70.7939982,31.1549242 70.7939982,30.6305243 70.6628982,30.2372243 L62.5346983,30.2372243 L62.5346983,30.2372243 Z M122.054097,32.0726241 C121.529697,30.7616242 120.218697,28.5329243 117.334497,28.5329243 C114.450297,28.5329243 112.090497,30.7616242 112.090497,34.1702241 C112.090497,37.316624 114.450297,39.807524 117.596697,39.807524 C120.087597,39.807524 121.660797,38.234324 122.185197,37.316624 L120.349797,36.0056241 C119.694297,36.9233241 118.907697,37.578824 117.596697,37.578824 C116.285697,37.578824 115.499097,37.0544241 114.843597,35.8745241 L122.316297,32.7281241 L122.054097,32.0726241 Z M114.450297,33.9080241 C114.450297,31.8104241 116.154597,30.6305243 117.334497,30.6305243 C118.252197,30.6305243 119.169897,31.1549243 119.432097,31.8104241 L114.450297,33.9080241 Z M108.288597,39.283124 L110.779497,39.283124 L110.779497,22.8956244 L108.288597,22.8956244 L108.288597,39.283124 Z M104.355597,29.7128243 L104.355597,29.7128243 C103.700097,29.0573243 102.651297,28.4018242 101.340297,28.4018242 C98.5871975,28.4018242 95.9651975,30.8927243 95.9651975,34.0391241 C95.9651975,37.1855239 98.4560975,39.5453239 101.340297,39.5453239 C102.651297,39.5453239 103.700097,38.889824 104.224497,38.234324 L104.355597,38.234324 L104.355597,39.0209239 C104.355597,41.1185239 103.175697,42.298424 101.340297,42.298424 C99.8981975,42.298424 98.8493974,41.249624 98.5871975,40.331924 L96.4895975,41.249624 C97.1450975,42.6917239 98.7182975,44.5271238 101.471397,44.5271238 C104.355597,44.5271238 106.715397,42.822824 106.715397,38.7587239 L106.715397,28.7951242 L104.355597,28.7951242 L104.355597,29.7128243 L104.355597,29.7128243 Z M101.471397,37.4477239 C99.7670975,37.4477239 98.3249975,36.0056241 98.3249975,34.0391241 C98.3249975,32.0726241 99.7670975,30.6305243 101.471397,30.6305243 C103.175697,30.6305243 104.486697,32.0726241 104.486697,34.0391241 C104.486697,36.0056241 103.175697,37.4477239 101.471397,37.4477239 Z M133.459797,22.8956244 L127.560297,22.8956244 L127.560297,39.283124 L130.051197,39.283124 L130.051197,33.1214241 L133.459797,33.1214241 C136.212896,33.1214241 138.834896,31.1549242 138.834896,28.0085242 C138.834896,24.8621244 136.212896,22.8956244 133.459797,22.8956244 Z M133.590897,30.7616242 L130.051197,30.7616242 L130.051197,25.1243244 L133.590897,25.1243244 C135.426296,25.1243244 136.475096,26.6975243 136.475096,27.8774243 C136.343996,29.3195243 135.295196,30.7616242 133.590897,30.7616242 Z M148.667396,28.4018242 C146.831996,28.4018242 144.996596,29.1884242 144.341096,30.8927243 L146.569796,31.8104241 C147.094196,30.8927243 147.880796,30.6305243 148.798496,30.6305243 C150.109495,30.6305243 151.289395,31.4171243 151.420495,32.7281241 L151.420495,32.8592241 C151.027196,32.5970241 149.978396,32.2037241 148.929596,32.2037241 C146.569796,32.2037241 144.209996,33.5147241 144.209996,35.8745241 C144.209996,38.103224 146.176496,39.5453239 148.274096,39.5453239 C149.978396,39.5453239 150.764995,38.7587239 151.420495,37.9721239 L151.551595,37.9721239 L151.551595,39.283124 L153.911395,39.283124 L153.911395,32.9903241 C153.649195,30.1061243 151.420495,28.4018242 148.667396,28.4018242 Z M148.405196,37.4477239 C147.618596,37.4477239 146.438696,37.0544241 146.438696,36.0056241 C146.438696,34.6946241 147.880796,34.3013241 149.060696,34.3013241 C150.109496,34.3013241 150.633895,34.5635241 151.289396,34.8257241 C151.027196,36.3989241 149.716196,37.4477239 148.405196,37.4477239 Z M162.170695,28.7951242 L159.417596,35.8745241 L159.286496,35.8745241 L156.402295,28.7951242 L153.780295,28.7951242 L158.106595,38.7587239 L155.615695,44.2649238 L158.106595,44.2649238 L164.792695,28.7951242 L162.170695,28.7951242 L162.170695,28.7951242 Z M140.145896,39.283124 L142.636796,39.283124 L142.636796,22.8956244 L140.145896,22.8956244 L140.145896,39.283124 Z" id="Shape" fill="#FFFFFF"></path>
            <g id="play" transform="translate(12.610000, 9.130125)">
                <path d="M1.02439999,0.655499983 C0.631099997,1.04879997 0.5,1.70429995 0.5,2.49089994 L0.5,31.4639992 C0.5,32.2505991 0.762199993,32.9060991 1.15549998,33.2993991 L1.28659998,33.4304991 L17.5429996,17.1740995 L17.5429996,17.0429995 L17.5429996,16.9118995 L1.02439999,0.655499983 L1.02439999,0.655499983 Z" id="Shape" fill="url(#linearGradient-1)"></path>
                <path d="M22.7869994,22.6802994 L17.4118996,17.3051996 L17.4118996,17.0429996 L17.4118996,16.9118996 L22.7869994,11.5367997 L22.9180994,11.6678997 L29.3419993,15.3386996 C31.1773993,16.3874996 31.1773993,18.0917996 29.3419993,19.1405996 L22.7869994,22.6802994 L22.7869994,22.6802994 Z" id="Shape" fill="url(#linearGradient-2)"></path>
                <path d="M22.9180994,22.5491994 L17.4118996,17.0429995 L1.02439999,33.4304991 C1.67989997,34.0859991 2.59759994,34.0859991 3.77749991,33.5615991 L22.9180994,22.5491994" id="Shape" fill="url(#linearGradient-3)"></path>
                <path d="M22.9180994,11.5367997 L3.77749991,0.655499983 C2.59759994,-3.1510905e-13 1.67989997,0.131099997 1.02439999,0.786599979 L17.4118996,17.0429995 L22.9180994,11.5367997 Z" id="Shape" fill="url(#linearGradient-4)"></path>
                <g id="Group" transform="translate(0.000000, 22.287000)" fill="#000000">
                    <path d="M22.7869994,0.131099997 L3.77749991,10.8812997 C2.72869994,11.5367997 1.81099997,11.4056997 1.15549998,10.8812997 L1.15549998,10.8812997 L1.02439999,11.0123997 L1.02439999,11.0123997 L1.15549998,11.1434997 L1.15549998,11.1434997 C1.81099997,11.6678997 2.72869994,11.7989997 3.77749991,11.1434997 L22.7869994,0.131099997 L22.7869994,0.131099997 Z" id="Shape" opacity="0.2"></path>
                    <path d="M1.02439999,10.8812997 C0.631099997,10.4879997 0.5,9.83249974 0.5,9.04589976 L0.5,9.17699976 C0.5,9.96359974 0.762199993,10.6190997 1.15549998,11.0123997 L1.15549998,10.8812997 L1.02439999,10.8812997 Z" id="Shape" opacity="0.12"></path>
                </g>
                <path d="M29.3419993,18.7472995 L22.7869994,22.4180994 L22.9180994,22.5491994 L29.3419993,18.8783995 C30.2596993,18.3539995 30.6529993,17.6984995 30.6529993,17.0429995 L30.6529993,17.0429995 C30.6529993,17.6984995 30.1285993,18.2228995 29.3419993,18.7472995 Z" id="Shape" fill="#000000" opacity="0.12"></path>
                <path d="M3.77749991,0.786599979 L29.3419992,15.3386996 C30.1285992,15.8630996 30.6529993,16.3874996 30.6529993,17.0429996 L30.6529993,17.0429996 C30.6529993,16.3874996 30.2596993,15.7319996 29.3419992,15.2075996 L3.77749991,0.655499984 C1.94209996,-0.393299989 0.5,0.39329999 0.5,2.49089994 L0.5,2.62199993 C0.5,0.655499984 1.94209996,-0.262199992 3.77749991,0.786599979 Z" id="Shape" fill="#FFFFFF" opacity="0.25"></path>
            </g>
        </g>
    </g>
</svg>