<?xml version="1.0" encoding="UTF-8"?>
<svg width="26px" height="26px" viewBox="0 0 26 26" version="1.1" xmlns="http://www.w3.org/2000/svg" xmlns:xlink="http://www.w3.org/1999/xlink">
    <title>ic_insta</title>
    <g id="Website" stroke="none" stroke-width="1" fill="none" fill-rule="evenodd">
        <g id="Home" transform="translate(-188.000000, -2851.000000)" fill="#716D82" fill-rule="nonzero">
            <g id="ic_insta" transform="translate(188.000000, 2851.000000)">
                <g id="1384031">
                    <path d="M25.8960618,7.62768031 C25.8352827,6.24916239 25.6123599,5.30144369 25.293022,4.48023273 C24.9635873,3.60853742 24.4567647,2.82810976 23.7927479,2.17933723 C23.1439754,1.52046784 22.3584004,1.00849783 21.4968019,0.684210526 C20.6708394,0.364872698 19.7280702,0.141949914 18.3495523,0.0811707836 C16.9607395,0.0152442612 16.5198435,0 12.9974263,0 C9.47500915,0 9.03411306,0.0152442612 7.65044775,0.0760233918 C6.27192982,0.136802522 5.32421112,0.35992322 4.50319807,0.679063135 C3.63130485,1.00849783 2.85087719,1.51532044 2.20210467,2.17933723 C1.54323527,2.82810976 1.03146318,3.61368481 0.706977961,4.47528325 C0.387640133,5.30144369 0.164717349,6.244015 0.103938218,7.62253292 C0.0380116959,9.01134563 0.0227674347,9.45224172 0.0227674347,12.9746589 C0.0227674347,16.497076 0.0380116959,16.9379721 0.0987908265,18.3216374 C0.159569957,19.7001553 0.382690655,20.6478741 0.702028483,21.469085 C1.03146318,22.3407803 1.54323527,23.121208 2.20210467,23.7699805 C2.85087719,24.4288499 3.63645224,24.9408199 4.49805068,25.2651072 C5.32421112,25.584445 6.26678243,25.8073678 7.64549827,25.868147 C9.02896567,25.929124 9.47005967,25.9441703 12.9924768,25.9441703 C16.514894,25.9441703 16.9557901,25.929124 18.3394554,25.868147 C19.7179733,25.8073678 20.665692,25.584445 21.4867051,25.2651072 C23.2302936,24.5909936 24.6088115,23.2124756 25.2829252,21.469085 C25.6020651,20.6429246 25.8251858,19.7001553 25.8859649,18.3216374 C25.946744,16.9379721 25.9619883,16.497076 25.9619883,12.9746589 C25.9619883,9.45224172 25.9568409,9.01134563 25.8960618,7.62768031 Z M23.5597283,18.2202729 C23.5038986,19.4873294 23.2910727,20.17154 23.1136848,20.6276803 C22.6777382,21.7579343 21.7807018,22.6549708 20.6504477,23.0909174 C20.1943074,23.2683053 19.5051474,23.4811312 18.2430403,23.5367629 C16.8746193,23.59774 16.4642117,23.6127863 13.0025737,23.6127863 C9.54093567,23.6127863 9.12538071,23.59774 7.76190914,23.5367629 C6.49485261,23.4811312 5.81064208,23.2683053 5.35450173,23.0909174 C4.79204738,22.8830409 4.28007738,22.5536062 3.86452242,22.122807 C3.4337232,21.7021047 3.1042885,21.1952821 2.89641206,20.6328277 C2.71902415,20.1766874 2.50619823,19.4873294 2.4505665,18.2254203 C2.38958945,16.8569992 2.3745431,16.4463938 2.3745431,12.9847557 C2.3745431,9.52311772 2.38958945,9.10756276 2.4505665,7.7442891 C2.50619823,6.47723257 2.71902415,5.79302204 2.89641206,5.33688169 C3.1042885,4.77422942 3.4337232,4.26245733 3.86966981,3.84670446 C4.29017425,3.41590524 4.79699686,3.08647054 5.35964912,2.87879202 C5.81578947,2.70140411 6.50514739,2.48857819 7.76705653,2.43274854 C9.13547758,2.37196941 9.54608306,2.35672515 13.0075232,2.35672515 C16.4743086,2.35672515 16.8847162,2.37196941 18.2481877,2.43274854 C19.5152443,2.48857819 20.1994548,2.70140411 20.6555951,2.87879202 C21.2180495,3.08647054 21.7300195,3.41590524 22.1455745,3.84670446 C22.5763737,4.26740681 22.9058084,4.77422942 23.1136848,5.33688169 C23.2910727,5.79302204 23.5038986,6.48218204 23.5597283,7.7442891 C23.6205074,9.11271015 23.6357517,9.52311772 23.6357517,12.9847557 C23.6357517,16.4463938 23.6205074,16.8518519 23.5597283,18.2202729 Z" id="Shape"></path>
                    <path d="M12.9974263,6.30994152 C9.31801289,6.30994152 6.33270896,9.29504754 6.33270896,12.9746589 C6.33270896,16.6542702 9.31801289,19.6393762 12.9974263,19.6393762 C16.6770376,19.6393762 19.6621437,16.6542702 19.6621437,12.9746589 C19.6621437,9.29504754 16.6770376,6.30994152 12.9974263,6.30994152 Z M12.9974263,17.2978953 C10.6104105,17.2978953 8.67418984,15.3618725 8.67418984,12.9746589 C8.67418984,10.5874452 10.6104105,8.65142241 12.9974263,8.65142241 C15.38464,8.65142241 17.3206628,10.5874452 17.3206628,12.9746589 C17.3206628,15.3618725 15.38464,17.2978953 12.9974263,17.2978953 L12.9974263,17.2978953 Z" id="Shape"></path>
                    <path d="M21.4817556,6.04643335 C21.4817556,6.90565605 20.7850725,7.60233918 19.9256518,7.60233918 C19.0664291,7.60233918 18.369746,6.90565605 18.369746,6.04643335 C18.369746,5.18701267 19.0664291,4.49052751 19.9256518,4.49052751 C20.7850725,4.49052751 21.4817556,5.18701267 21.4817556,6.04643335 L21.4817556,6.04643335 Z" id="Path"></path>
                </g>
            </g>
        </g>
    </g>
</svg>